<svg xmlns="http://www.w3.org/2000/svg" width="1200" height="48" viewBox="0 0 1200 48" role="img" aria-label="Pac-Man divider">
  <circle cx="112" cy="24" r="3" fill="#9aa3ad"/><circle cx="164" cy="24" r="3" fill="#9aa3ad"/><circle cx="216" cy="24" r="3" fill="#9aa3ad"/><circle cx="268" cy="24" r="3" fill="#9aa3ad"/><circle cx="320" cy="24" r="3" fill="#9aa3ad"/><circle cx="372" cy="24" r="3" fill="#9aa3ad"/><circle cx="424" cy="24" r="3" fill="#9aa3ad"/><circle cx="476" cy="24" r="3" fill="#9aa3ad"/><circle cx="528" cy="24" r="3" fill="#9aa3ad"/><circle cx="580" cy="24" r="3" fill="#9aa3ad"/><circle cx="632" cy="24" r="3" fill="#9aa3ad"/><circle cx="684" cy="24" r="3" fill="#9aa3ad"/><circle cx="736" cy="24" r="3" fill="#9aa3ad"/><circle cx="788" cy="24" r="3" fill="#9aa3ad"/><circle cx="840" cy="24" r="3" fill="#9aa3ad"/><circle cx="892" cy="24" r="3" fill="#9aa3ad"/><circle cx="944" cy="24" r="3" fill="#9aa3ad"/><circle cx="996" cy="24" r="3" fill="#9aa3ad"/><circle cx="1048" cy="24" r="3" fill="#9aa3ad"/><circle cx="1100" cy="24" r="3" fill="#9aa3ad"/><circle cx="1152" cy="24" r="3" fill="#9aa3ad"/>
  <path d="M46,24 L60.2,12.9 A18,18 0 1 0 60.2,35.1 Z" fill="#ffd23e"/>
  <circle cx="46" cy="15" r="2.3" fill="#1b1f24"/>
</svg>
