<svg xmlns="http://www.w3.org/2000/svg" width="1200" height="48" viewBox="0 0 1200 48" role="img" aria-label="Pac-Man divider">
  <circle cx="110" cy="24" r="4.5" fill="#8b95a1"/><circle cx="156" cy="24" r="4.5" fill="#8b95a1"/><circle cx="202" cy="24" r="4.5" fill="#8b95a1"/><circle cx="248" cy="24" r="4.5" fill="#8b95a1"/><circle cx="294" cy="24" r="4.5" fill="#8b95a1"/><circle cx="340" cy="24" r="4.5" fill="#8b95a1"/><circle cx="386" cy="24" r="4.5" fill="#8b95a1"/><circle cx="432" cy="24" r="4.5" fill="#8b95a1"/><circle cx="478" cy="24" r="4.5" fill="#8b95a1"/><circle cx="524" cy="24" r="4.5" fill="#8b95a1"/><circle cx="570" cy="24" r="4.5" fill="#8b95a1"/><circle cx="616" cy="24" r="4.5" fill="#8b95a1"/><circle cx="662" cy="24" r="4.5" fill="#8b95a1"/><circle cx="708" cy="24" r="4.5" fill="#8b95a1"/><circle cx="754" cy="24" r="4.5" fill="#8b95a1"/><circle cx="800" cy="24" r="4.5" fill="#8b95a1"/><circle cx="846" cy="24" r="4.5" fill="#8b95a1"/><circle cx="892" cy="24" r="4.5" fill="#8b95a1"/><circle cx="938" cy="24" r="4.5" fill="#8b95a1"/><circle cx="984" cy="24" r="4.5" fill="#8b95a1"/><circle cx="1030" cy="24" r="4.5" fill="#8b95a1"/><circle cx="1076" cy="24" r="4.5" fill="#8b95a1"/><circle cx="1122" cy="24" r="4.5" fill="#8b95a1"/><circle cx="1168" cy="24" r="4.5" fill="#8b95a1"/>
  <path d="M46,24 L60.2,12.9 A18,18 0 1 1 60.2,35.1 Z" fill="#ffd23e"/>
  <circle cx="46" cy="15" r="2.4" fill="#1b1f24"/>
</svg>
