<svg xmlns="http://www.w3.org/2000/svg" width="1200" height="34" viewBox="0 0 1200 34" role="img" aria-label="Pac-Man and ghost divider">
  <circle cx="70" cy="17" r="2" fill="#9aa3ad"/><circle cx="100" cy="17" r="2" fill="#9aa3ad"/><circle cx="130" cy="17" r="2" fill="#9aa3ad"/><circle cx="160" cy="17" r="2" fill="#9aa3ad"/><circle cx="190" cy="17" r="2" fill="#9aa3ad"/><circle cx="220" cy="17" r="2" fill="#9aa3ad"/><circle cx="250" cy="17" r="2" fill="#9aa3ad"/><circle cx="280" cy="17" r="2" fill="#9aa3ad"/><circle cx="310" cy="17" r="2" fill="#9aa3ad"/><circle cx="340" cy="17" r="2" fill="#9aa3ad"/><circle cx="370" cy="17" r="2" fill="#9aa3ad"/><circle cx="400" cy="17" r="2" fill="#9aa3ad"/><circle cx="430" cy="17" r="2" fill="#9aa3ad"/><circle cx="460" cy="17" r="2" fill="#9aa3ad"/><circle cx="490" cy="17" r="2" fill="#9aa3ad"/><circle cx="520" cy="17" r="2" fill="#9aa3ad"/><circle cx="550" cy="17" r="2" fill="#9aa3ad"/><circle cx="580" cy="17" r="2" fill="#9aa3ad"/><circle cx="610" cy="17" r="2" fill="#9aa3ad"/><circle cx="640" cy="17" r="2" fill="#9aa3ad"/><circle cx="670" cy="17" r="2" fill="#9aa3ad"/><circle cx="700" cy="17" r="2" fill="#9aa3ad"/><circle cx="730" cy="17" r="2" fill="#9aa3ad"/><circle cx="790" cy="17" r="2" fill="#9aa3ad"/><circle cx="820" cy="17" r="2" fill="#9aa3ad"/><circle cx="850" cy="17" r="2" fill="#9aa3ad"/><circle cx="880" cy="17" r="2" fill="#9aa3ad"/><circle cx="910" cy="17" r="2" fill="#9aa3ad"/><circle cx="940" cy="17" r="2" fill="#9aa3ad"/><circle cx="970" cy="17" r="2" fill="#9aa3ad"/><circle cx="1000" cy="17" r="2" fill="#9aa3ad"/><circle cx="1030" cy="17" r="2" fill="#9aa3ad"/><circle cx="1060" cy="17" r="2" fill="#9aa3ad"/><circle cx="1090" cy="17" r="2" fill="#9aa3ad"/><circle cx="1120" cy="17" r="2" fill="#9aa3ad"/><circle cx="1150" cy="17" r="2" fill="#9aa3ad"/><circle cx="1180" cy="17" r="2" fill="#9aa3ad"/>
  <path d="M38,17 L48.2,9.0 A13,13 0 1 0 48.2,25.0 Z" fill="#ffd23e"/>
  <g transform="translate(745.6,3.8) scale(1.2)"><path d="M12 2a9 9 0 0 0-9 9v9l3-2 3 2 3-2 3 2 3-2 3 2v-9a9 9 0 0 0-9-9z" fill="#ff6b81"/><circle cx="9" cy="10" r="2.4" fill="#fff"/><circle cx="15" cy="10" r="2.4" fill="#fff"/><circle cx="8.2" cy="10.3" r="1.1" fill="#1b2a4a"/><circle cx="14.2" cy="10.3" r="1.1" fill="#1b2a4a"/></g>
</svg>
