<svg xmlns="http://www.w3.org/2000/svg" width="1200" height="30" viewBox="0 0 1200 30" preserveAspectRatio="none" role="img" aria-label="Pac-Man and ghost divider">
  <circle cx="44" cy="15" r="2" fill="#9aa3ad"/><circle cx="72" cy="15" r="2" fill="#9aa3ad"/><circle cx="100" cy="15" r="2" fill="#9aa3ad"/><circle cx="128" cy="15" r="2" fill="#9aa3ad"/><circle cx="156" cy="15" r="2" fill="#9aa3ad"/><circle cx="184" cy="15" r="2" fill="#9aa3ad"/><circle cx="212" cy="15" r="2" fill="#9aa3ad"/><circle cx="240" cy="15" r="2" fill="#9aa3ad"/><circle cx="268" cy="15" r="2" fill="#9aa3ad"/><circle cx="296" cy="15" r="2" fill="#9aa3ad"/><circle cx="324" cy="15" r="2" fill="#9aa3ad"/><circle cx="352" cy="15" r="2" fill="#9aa3ad"/><circle cx="380" cy="15" r="2" fill="#9aa3ad"/><circle cx="408" cy="15" r="2" fill="#9aa3ad"/><circle cx="436" cy="15" r="2" fill="#9aa3ad"/><circle cx="464" cy="15" r="2" fill="#9aa3ad"/><circle cx="492" cy="15" r="2" fill="#9aa3ad"/><circle cx="520" cy="15" r="2" fill="#9aa3ad"/><circle cx="548" cy="15" r="2" fill="#9aa3ad"/><circle cx="576" cy="15" r="2" fill="#9aa3ad"/><circle cx="632" cy="15" r="2" fill="#9aa3ad"/><circle cx="660" cy="15" r="2" fill="#9aa3ad"/><circle cx="688" cy="15" r="2" fill="#9aa3ad"/><circle cx="716" cy="15" r="2" fill="#9aa3ad"/><circle cx="744" cy="15" r="2" fill="#9aa3ad"/><circle cx="772" cy="15" r="2" fill="#9aa3ad"/><circle cx="800" cy="15" r="2" fill="#9aa3ad"/><circle cx="828" cy="15" r="2" fill="#9aa3ad"/><circle cx="856" cy="15" r="2" fill="#9aa3ad"/><circle cx="884" cy="15" r="2" fill="#9aa3ad"/><circle cx="912" cy="15" r="2" fill="#9aa3ad"/><circle cx="940" cy="15" r="2" fill="#9aa3ad"/><circle cx="968" cy="15" r="2" fill="#9aa3ad"/><circle cx="996" cy="15" r="2" fill="#9aa3ad"/><circle cx="1024" cy="15" r="2" fill="#9aa3ad"/><circle cx="1052" cy="15" r="2" fill="#9aa3ad"/><circle cx="1080" cy="15" r="2" fill="#9aa3ad"/><circle cx="1108" cy="15" r="2" fill="#9aa3ad"/><circle cx="1136" cy="15" r="2" fill="#9aa3ad"/><circle cx="1164" cy="15" r="2" fill="#9aa3ad"/><circle cx="1192" cy="15" r="2" fill="#9aa3ad"/>
  <path d="M16,15 L25.5,7.6 A12,12 0 1 0 25.5,22.4 Z" fill="#ffd23e"/>
  <g transform="translate(590.2,2.4) scale(1.15)"><path d="M12 2a9 9 0 0 0-9 9v9l3-2 3 2 3-2 3 2 3-2 3 2v-9a9 9 0 0 0-9-9z" fill="#ff6b81"/><circle cx="9" cy="10" r="2.4" fill="#fff"/><circle cx="15" cy="10" r="2.4" fill="#fff"/><circle cx="8.2" cy="10.3" r="1.1" fill="#1b2a4a"/><circle cx="14.2" cy="10.3" r="1.1" fill="#1b2a4a"/></g>
</svg>
