<svg xmlns="http://www.w3.org/2000/svg" width="1200" height="34" viewBox="0 0 1200 34" role="img" aria-label="Pac-Man and ghost divider">
  <circle cx="78" cy="17" r="2.6" fill="#9aa3ad"/><circle cx="118" cy="17" r="2.6" fill="#9aa3ad"/><circle cx="158" cy="17" r="2.6" fill="#9aa3ad"/><circle cx="198" cy="17" r="2.6" fill="#9aa3ad"/><circle cx="238" cy="17" r="2.6" fill="#9aa3ad"/><circle cx="278" cy="17" r="2.6" fill="#9aa3ad"/><circle cx="318" cy="17" r="2.6" fill="#9aa3ad"/><circle cx="358" cy="17" r="2.6" fill="#9aa3ad"/><circle cx="398" cy="17" r="2.6" fill="#9aa3ad"/><circle cx="438" cy="17" r="2.6" fill="#9aa3ad"/><circle cx="478" cy="17" r="2.6" fill="#9aa3ad"/><circle cx="518" cy="17" r="2.6" fill="#9aa3ad"/><circle cx="558" cy="17" r="2.6" fill="#9aa3ad"/><circle cx="598" cy="17" r="2.6" fill="#9aa3ad"/><circle cx="638" cy="17" r="2.6" fill="#9aa3ad"/><circle cx="678" cy="17" r="2.6" fill="#9aa3ad"/><circle cx="718" cy="17" r="2.6" fill="#9aa3ad"/><circle cx="758" cy="17" r="2.6" fill="#9aa3ad"/><circle cx="798" cy="17" r="2.6" fill="#9aa3ad"/><circle cx="838" cy="17" r="2.6" fill="#9aa3ad"/><circle cx="878" cy="17" r="2.6" fill="#9aa3ad"/><circle cx="918" cy="17" r="2.6" fill="#9aa3ad"/><circle cx="958" cy="17" r="2.6" fill="#9aa3ad"/><circle cx="998" cy="17" r="2.6" fill="#9aa3ad"/><circle cx="1038" cy="17" r="2.6" fill="#9aa3ad"/><circle cx="1078" cy="17" r="2.6" fill="#9aa3ad"/><circle cx="1118" cy="17" r="2.6" fill="#9aa3ad"/><circle cx="1158" cy="17" r="2.6" fill="#9aa3ad"/>
  <path d="M38,17 L48.2,9.0 A13,13 0 1 0 48.2,25.0 Z" fill="#ffd23e"/>
  <circle cx="38" cy="10.5" r="1.7" fill="#1b1f24"/>
  <g transform="translate(883.8,2.1) scale(1.35)"><path d="M12 2a9 9 0 0 0-9 9v9l3-2 3 2 3-2 3 2 3-2 3 2v-9a9 9 0 0 0-9-9z" fill="#ff6b81"/><circle cx="9" cy="10" r="2.4" fill="#fff"/><circle cx="15" cy="10" r="2.4" fill="#fff"/><circle cx="8.2" cy="10.3" r="1.1" fill="#1b2a4a"/><circle cx="14.2" cy="10.3" r="1.1" fill="#1b2a4a"/></g>
</svg>
